<svg width="390" height="342" viewBox="0 0 390 342" fill="none" xmlns="http://www.w3.org/2000/svg">
<path d="M-22.0588 1H-51V29.3333M-22.0588 1V29.3333M-22.0588 1H6.88235M-22.0588 29.3333H-51M-22.0588 29.3333H6.88235M-22.0588 29.3333V57.6667M-51 29.3333V57.6667M6.88235 1V29.3333M6.88235 1H35.8235M6.88235 29.3333H35.8235M6.88235 29.3333V57.6667M35.8235 1V29.3333M35.8235 1H64.7647M35.8235 29.3333H64.7647M35.8235 29.3333V57.6667M64.7647 1V29.3333M64.7647 1H93.7059M64.7647 29.3333H93.7059M64.7647 29.3333V57.6667M93.7059 1V29.3333M93.7059 1H122.647M93.7059 29.3333H122.647M93.7059 29.3333V57.6667M122.647 1V29.3333M122.647 1H151.588M122.647 29.3333H151.588M122.647 29.3333V57.6667M151.588 1V29.3333M151.588 1H180.529M151.588 29.3333H180.529M151.588 29.3333V57.6667M180.529 1V29.3333M180.529 1H209.471M180.529 29.3333H209.471M180.529 29.3333V57.6667M209.471 1V29.3333M209.471 1H238.412M209.471 29.3333H238.412M209.471 29.3333V57.6667M238.412 1V29.3333M238.412 1H267.353M238.412 29.3333H267.353M238.412 29.3333V57.6667M267.353 1V29.3333M267.353 1H296.294M267.353 29.3333H296.294M267.353 29.3333V57.6667M296.294 1V29.3333M296.294 1H325.235M296.294 29.3333H325.235M296.294 29.3333V57.6667M325.235 1V29.3333M325.235 1H354.176M325.235 29.3333H354.176M325.235 29.3333V57.6667M354.176 1V29.3333M354.176 1H383.118M354.176 29.3333H383.118M354.176 29.3333V57.6667M383.118 1V29.3333M383.118 1H412.059M383.118 29.3333H412.059M383.118 29.3333V57.6667M412.059 1V29.3333M412.059 1H441V29.3333M412.059 29.3333H441M412.059 29.3333V57.6667M441 29.3333V57.6667M-22.0588 57.6667H-51M-22.0588 57.6667H6.88235M-22.0588 57.6667V86M-51 57.6667V86M6.88235 57.6667H35.8235M6.88235 57.6667V86M35.8235 57.6667H64.7647M35.8235 57.6667V86M64.7647 57.6667H93.7059M64.7647 57.6667V86M93.7059 57.6667H122.647M93.7059 57.6667V86M122.647 57.6667H151.588M122.647 57.6667V86M151.588 57.6667H180.529M151.588 57.6667V86M180.529 57.6667H209.471M180.529 57.6667V86M209.471 57.6667H238.412M209.471 57.6667V86M238.412 57.6667H267.353M238.412 57.6667V86M267.353 57.6667H296.294M267.353 57.6667V86M296.294 57.6667H325.235M296.294 57.6667V86M325.235 57.6667H354.176M325.235 57.6667V86M354.176 57.6667H383.118M354.176 57.6667V86M383.118 57.6667H412.059M383.118 57.6667V86M412.059 57.6667H441M412.059 57.6667V86M441 57.6667V86M-22.0588 86H-51M-22.0588 86H6.88235M-22.0588 86V114.333M-51 86V114.333M6.88235 86H35.8235M6.88235 86V114.333M35.8235 86H64.7647M35.8235 86V114.333M64.7647 86H93.7059M64.7647 86V114.333M93.7059 86H122.647M93.7059 86V114.333M122.647 86H151.588M122.647 86V114.333M151.588 86H180.529M151.588 86V114.333M180.529 86H209.471M180.529 86V114.333M209.471 86H238.412M209.471 86V114.333M238.412 86H267.353M238.412 86V114.333M267.353 86H296.294M267.353 86V114.333M296.294 86H325.235M296.294 86V114.333M325.235 86H354.176M325.235 86V114.333M354.176 86H383.118M354.176 86V114.333M383.118 86H412.059M383.118 86V114.333M412.059 86H441M412.059 86V114.333M441 86V114.333M-22.0588 114.333H-51M-22.0588 114.333H6.88235M-22.0588 114.333V142.667M-51 114.333V142.667M6.88235 114.333H35.8235M6.88235 114.333V142.667M35.8235 114.333H64.7647M35.8235 114.333V142.667M64.7647 114.333H93.7059M64.7647 114.333V142.667M93.7059 114.333H122.647M93.7059 114.333V142.667M122.647 114.333H151.588M122.647 114.333V142.667M151.588 114.333H180.529M151.588 114.333V142.667M180.529 114.333H209.471M180.529 114.333V142.667M209.471 114.333H238.412M209.471 114.333V142.667M238.412 114.333H267.353M238.412 114.333V142.667M267.353 114.333H296.294M267.353 114.333V142.667M296.294 114.333H325.235M296.294 114.333V142.667M325.235 114.333H354.176M325.235 114.333V142.667M354.176 114.333H383.118M354.176 114.333V142.667M383.118 114.333H412.059M383.118 114.333V142.667M412.059 114.333H441M412.059 114.333V142.667M441 114.333V142.667M-22.0588 142.667H-51M-22.0588 142.667H6.88235M-22.0588 142.667V171M-51 142.667V171M6.88235 142.667H35.8235M6.88235 142.667V171M35.8235 142.667H64.7647M35.8235 142.667V171M64.7647 142.667H93.7059M64.7647 142.667V171M93.7059 142.667H122.647M93.7059 142.667V171M122.647 142.667H151.588M122.647 142.667V171M151.588 142.667H180.529M151.588 142.667V171M180.529 142.667H209.471M180.529 142.667V171M209.471 142.667H238.412M209.471 142.667V171M238.412 142.667H267.353M238.412 142.667V171M267.353 142.667H296.294M267.353 142.667V171M296.294 142.667H325.235M296.294 142.667V171M325.235 142.667H354.176M325.235 142.667V171M354.176 142.667H383.118M354.176 142.667V171M383.118 142.667H412.059M383.118 142.667V171M412.059 142.667H441M412.059 142.667V171M441 142.667V171M-22.0588 171H-51M-22.0588 171H6.88235M-22.0588 171V199.333M-51 171V199.333M6.88235 171H35.8235M6.88235 171V199.333M35.8235 171H64.7647M35.8235 171V199.333M64.7647 171H93.7059M64.7647 171V199.333M93.7059 171H122.647M93.7059 171V199.333M122.647 171H151.588M122.647 171V199.333M151.588 171H180.529M151.588 171V199.333M180.529 171H209.471M180.529 171V199.333M209.471 171H238.412M209.471 171V199.333M238.412 171H267.353M238.412 171V199.333M267.353 171H296.294M267.353 171V199.333M296.294 171H325.235M296.294 171V199.333M325.235 171H354.176M325.235 171V199.333M354.176 171H383.118M354.176 171V199.333M383.118 171H412.059M383.118 171V199.333M412.059 171H441M412.059 171V199.333M441 171V199.333M-22.0588 199.333H-51M-22.0588 199.333H6.88235M-22.0588 199.333V227.667M-51 199.333V227.667M6.88235 199.333H35.8235M6.88235 199.333V227.667M35.8235 199.333H64.7647M35.8235 199.333V227.667M64.7647 199.333H93.7059M64.7647 199.333V227.667M93.7059 199.333H122.647M93.7059 199.333V227.667M122.647 199.333H151.588M122.647 199.333V227.667M151.588 199.333H180.529M151.588 199.333V227.667M180.529 199.333H209.471M180.529 199.333V227.667M209.471 199.333H238.412M209.471 199.333V227.667M238.412 199.333H267.353M238.412 199.333V227.667M267.353 199.333H296.294M267.353 199.333V227.667M296.294 199.333H325.235M296.294 199.333V227.667M325.235 199.333H354.176M325.235 199.333V227.667M354.176 199.333H383.118M354.176 199.333V227.667M383.118 199.333H412.059M383.118 199.333V227.667M412.059 199.333H441M412.059 199.333V227.667M441 199.333V227.667M-22.0588 227.667H-51M-22.0588 227.667H6.88235M-22.0588 227.667V256M-51 227.667V256M6.88235 227.667H35.8235M6.88235 227.667V256M35.8235 227.667H64.7647M35.8235 227.667V256M64.7647 227.667H93.7059M64.7647 227.667V256M93.7059 227.667H122.647M93.7059 227.667V256M122.647 227.667H151.588M122.647 227.667V256M151.588 227.667H180.529M151.588 227.667V256M180.529 227.667H209.471M180.529 227.667V256M209.471 227.667H238.412M209.471 227.667V256M238.412 227.667H267.353M238.412 227.667V256M267.353 227.667H296.294M267.353 227.667V256M296.294 227.667H325.235M296.294 227.667V256M325.235 227.667H354.176M325.235 227.667V256M354.176 227.667H383.118M354.176 227.667V256M383.118 227.667H412.059M383.118 227.667V256M412.059 227.667H441M412.059 227.667V256M441 227.667V256M-22.0588 256H-51M-22.0588 256H6.88235M-22.0588 256V284.333M-51 256V284.333M6.88235 256H35.8235M6.88235 256V284.333M35.8235 256H64.7647M35.8235 256V284.333M64.7647 256H93.7059M64.7647 256V284.333M93.7059 256H122.647M93.7059 256V284.333M122.647 256H151.588M122.647 256V284.333M151.588 256H180.529M151.588 256V284.333M180.529 256H209.471M180.529 256V284.333M209.471 256H238.412M209.471 256V284.333M238.412 256H267.353M238.412 256V284.333M267.353 256H296.294M267.353 256V284.333M296.294 256H325.235M296.294 256V284.333M325.235 256H354.176M325.235 256V284.333M354.176 256H383.118M354.176 256V284.333M383.118 256H412.059M383.118 256V284.333M412.059 256H441M412.059 256V284.333M441 256V284.333M-22.0588 284.333H-51M-22.0588 284.333H6.88235M-22.0588 284.333V312.667M-51 284.333V312.667M6.88235 284.333H35.8235M6.88235 284.333V312.667M35.8235 284.333H64.7647M35.8235 284.333V312.667M64.7647 284.333H93.7059M64.7647 284.333V312.667M93.7059 284.333H122.647M93.7059 284.333V312.667M122.647 284.333H151.588M122.647 284.333V312.667M151.588 284.333H180.529M151.588 284.333V312.667M180.529 284.333H209.471M180.529 284.333V312.667M209.471 284.333H238.412M209.471 284.333V312.667M238.412 284.333H267.353M238.412 284.333V312.667M267.353 284.333H296.294M267.353 284.333V312.667M296.294 284.333H325.235M296.294 284.333V312.667M325.235 284.333H354.176M325.235 284.333V312.667M354.176 284.333H383.118M354.176 284.333V312.667M383.118 284.333H412.059M383.118 284.333V312.667M412.059 284.333H441M412.059 284.333V312.667M441 284.333V312.667M-22.0588 312.667H-51M-22.0588 312.667H6.88235M-22.0588 312.667V341M-51 312.667V341H-22.0588M6.88235 312.667H35.8235M6.88235 312.667V341M35.8235 312.667H64.7647M35.8235 312.667V341M64.7647 312.667H93.7059M64.7647 312.667V341M93.7059 312.667H122.647M93.7059 312.667V341M122.647 312.667H151.588M122.647 312.667V341M151.588 312.667H180.529M151.588 312.667V341M180.529 312.667H209.471M180.529 312.667V341M209.471 312.667H238.412M209.471 312.667V341M238.412 312.667H267.353M238.412 312.667V341M267.353 312.667H296.294M267.353 312.667V341M296.294 312.667H325.235M296.294 312.667V341M325.235 312.667H354.176M325.235 312.667V341M354.176 312.667H383.118M354.176 312.667V341M383.118 312.667H412.059M383.118 312.667V341M412.059 312.667H441M412.059 312.667V341M441 312.667V341H412.059M-22.0588 341H6.88235M6.88235 341H35.8235M35.8235 341H64.7647M64.7647 341H93.7059M93.7059 341H122.647M122.647 341H151.588M151.588 341H180.529M180.529 341H209.471M209.471 341H238.412M238.412 341H267.353M267.353 341H296.294M296.294 341H325.235M325.235 341H354.176M354.176 341H383.118M383.118 341H412.059" stroke="url(#paint0_radial_2002_8379)" stroke-opacity="0.08"/>
<defs>
<radialGradient id="paint0_radial_2002_8379" cx="0" cy="0" r="1" gradientUnits="userSpaceOnUse" gradientTransform="translate(195 180.081) rotate(90) scale(160.556 246.371)">
<stop stop-color="white"/>
<stop offset="1" stop-color="white" stop-opacity="0"/>
</radialGradient>
</defs>
</svg>
